<svg width="226" height="284" viewBox="0 0 226 284" fill="none" xmlns="http://www.w3.org/2000/svg">
<rect width="226" height="284" rx="20" fill="#0B0F26"/>
<circle cx="113" cy="101" r="50" fill="url(#paint0_linear_25_170)"/>
<path d="M98.4167 119.75H127.583C129.885 119.75 131.75 117.885 131.75 115.583V86.4167C131.75 84.1155 129.885 82.25 127.583 82.25H98.4167C96.1155 82.25 94.25 84.1155 94.25 86.4167V115.583C94.25 117.885 96.1155 119.75 98.4167 119.75Z" stroke="white" stroke-width="2" stroke-linecap="round" stroke-linejoin="round"/>
<path d="M117.167 111.417H123.417V92.6666H117.167V111.417Z" fill="white" stroke="white" stroke-width="2" stroke-linecap="round" stroke-linejoin="round"/>
<path d="M102.583 111.417H108.833V101H102.583V111.417Z" fill="white" stroke="white" stroke-width="2" stroke-linecap="round" stroke-linejoin="round"/>
<path d="M66.1261 214H68.9361L74.0261 228H71.4361L70.5361 225.52H64.5361L63.6361 228H61.0461L66.1261 214ZM65.4261 223.08H69.6361L67.5261 217.31L65.4261 223.08ZM76.0039 228V214H78.4439V228H76.0039ZM90.9978 228.26C90.2245 228.26 89.4811 228.14 88.7678 227.9C88.0611 227.653 87.4411 227.303 86.9078 226.85C86.3745 226.39 85.9911 225.84 85.7578 225.2L88.0478 224.36C88.1411 224.627 88.3311 224.87 88.6178 225.09C88.9045 225.31 89.2545 225.487 89.6678 225.62C90.0811 225.753 90.5245 225.82 90.9978 225.82C91.4845 225.82 91.9378 225.747 92.3578 225.6C92.7845 225.447 93.1278 225.237 93.3878 224.97C93.6478 224.697 93.7778 224.38 93.7778 224.02C93.7778 223.653 93.6411 223.353 93.3678 223.12C93.0945 222.88 92.7445 222.69 92.3178 222.55C91.8911 222.41 91.4511 222.303 90.9978 222.23C90.0045 222.077 89.1145 221.84 88.3278 221.52C87.5411 221.2 86.9178 220.757 86.4578 220.19C86.0045 219.623 85.7778 218.89 85.7778 217.99C85.7778 217.143 86.0211 216.403 86.5078 215.77C86.9945 215.137 87.6345 214.643 88.4278 214.29C89.2211 213.937 90.0778 213.76 90.9978 213.76C91.7645 213.76 92.5045 213.88 93.2178 214.12C93.9311 214.36 94.5545 214.71 95.0878 215.17C95.6278 215.63 96.0145 216.183 96.2478 216.83L93.9478 217.66C93.8545 217.393 93.6645 217.15 93.3778 216.93C93.0911 216.71 92.7411 216.537 92.3278 216.41C91.9145 216.277 91.4711 216.21 90.9978 216.21C90.5245 216.203 90.0745 216.28 89.6478 216.44C89.2278 216.593 88.8845 216.803 88.6178 217.07C88.3511 217.337 88.2178 217.643 88.2178 217.99C88.2178 218.437 88.3411 218.773 88.5878 219C88.8411 219.227 89.1778 219.393 89.5978 219.5C90.0178 219.6 90.4845 219.693 90.9978 219.78C91.9311 219.927 92.7945 220.173 93.5878 220.52C94.3811 220.867 95.0178 221.33 95.4978 221.91C95.9778 222.483 96.2178 223.187 96.2178 224.02C96.2178 224.867 95.9778 225.61 95.4978 226.25C95.0178 226.883 94.3811 227.377 93.5878 227.73C92.7945 228.083 91.9311 228.26 90.9978 228.26ZM102.526 228.26C101.606 228.26 100.766 228.023 100.006 227.55C99.2524 227.077 98.6491 226.443 98.1958 225.65C97.7491 224.85 97.5258 223.967 97.5258 223C97.5258 222.267 97.6558 221.583 97.9158 220.95C98.1758 220.31 98.5324 219.75 98.9858 219.27C99.4458 218.783 99.9791 218.403 100.586 218.13C101.192 217.857 101.839 217.72 102.526 217.72C103.446 217.72 104.282 217.957 105.036 218.43C105.796 218.903 106.399 219.54 106.846 220.34C107.299 221.14 107.526 222.027 107.526 223C107.526 223.727 107.396 224.407 107.136 225.04C106.876 225.673 106.516 226.233 106.056 226.72C105.602 227.2 105.072 227.577 104.466 227.85C103.866 228.123 103.219 228.26 102.526 228.26ZM102.526 225.82C103.012 225.82 103.449 225.69 103.836 225.43C104.222 225.17 104.526 224.827 104.746 224.4C104.972 223.973 105.086 223.507 105.086 223C105.086 222.48 104.969 222.007 104.736 221.58C104.509 221.147 104.199 220.803 103.806 220.55C103.419 220.29 102.992 220.16 102.526 220.16C102.046 220.16 101.612 220.29 101.226 220.55C100.839 220.81 100.532 221.157 100.306 221.59C100.079 222.023 99.9658 222.493 99.9658 223C99.9658 223.527 100.082 224.003 100.316 224.43C100.549 224.857 100.859 225.197 101.246 225.45C101.639 225.697 102.066 225.82 102.526 225.82ZM108.927 228V213H111.367V228H108.927ZM113.37 224.3V218H115.81V223.66C115.81 224.053 115.907 224.413 116.1 224.74C116.294 225.06 116.55 225.317 116.87 225.51C117.197 225.697 117.554 225.79 117.94 225.79C118.34 225.79 118.7 225.697 119.02 225.51C119.34 225.317 119.597 225.06 119.79 224.74C119.984 224.413 120.08 224.053 120.08 223.66V218H122.52L122.53 228H120.09L120.08 227.09C119.734 227.45 119.324 227.737 118.85 227.95C118.377 228.157 117.87 228.26 117.33 228.26C116.604 228.26 115.94 228.083 115.34 227.73C114.74 227.37 114.26 226.893 113.9 226.3C113.547 225.7 113.37 225.033 113.37 224.3ZM129.892 220.44H127.952V228H125.512V220.44H124.032V218H125.512V214.86H127.952V218H129.892V220.44ZM131.544 218H133.984V228H131.544V218ZM132.784 216.71C132.424 216.71 132.12 216.593 131.874 216.36C131.627 216.12 131.504 215.82 131.504 215.46C131.504 215.107 131.627 214.81 131.874 214.57C132.12 214.33 132.42 214.21 132.774 214.21C133.127 214.21 133.424 214.33 133.664 214.57C133.91 214.81 134.034 215.107 134.034 215.46C134.034 215.82 133.914 216.12 133.674 216.36C133.434 216.593 133.137 216.71 132.784 216.71ZM140.553 228.26C139.633 228.26 138.793 228.023 138.033 227.55C137.28 227.077 136.676 226.443 136.223 225.65C135.776 224.85 135.553 223.967 135.553 223C135.553 222.267 135.683 221.583 135.943 220.95C136.203 220.31 136.56 219.75 137.013 219.27C137.473 218.783 138.006 218.403 138.613 218.13C139.22 217.857 139.866 217.72 140.553 217.72C141.473 217.72 142.31 217.957 143.063 218.43C143.823 218.903 144.426 219.54 144.873 220.34C145.326 221.14 145.553 222.027 145.553 223C145.553 223.727 145.423 224.407 145.163 225.04C144.903 225.673 144.543 226.233 144.083 226.72C143.63 227.2 143.1 227.577 142.493 227.85C141.893 228.123 141.246 228.26 140.553 228.26ZM140.553 225.82C141.04 225.82 141.476 225.69 141.863 225.43C142.25 225.17 142.553 224.827 142.773 224.4C143 223.973 143.113 223.507 143.113 223C143.113 222.48 142.996 222.007 142.763 221.58C142.536 221.147 142.226 220.803 141.833 220.55C141.446 220.29 141.02 220.16 140.553 220.16C140.073 220.16 139.64 220.29 139.253 220.55C138.866 220.81 138.56 221.157 138.333 221.59C138.106 222.023 137.993 222.493 137.993 223C137.993 223.527 138.11 224.003 138.343 224.43C138.576 224.857 138.886 225.197 139.273 225.45C139.666 225.697 140.093 225.82 140.553 225.82ZM156.27 221.68V228H153.83V222.32C153.83 221.927 153.733 221.57 153.54 221.25C153.347 220.923 153.087 220.667 152.76 220.48C152.44 220.287 152.083 220.19 151.69 220.19C151.297 220.19 150.937 220.287 150.61 220.48C150.29 220.667 150.033 220.923 149.84 221.25C149.653 221.57 149.56 221.927 149.56 222.32V228H147.12L147.11 218H149.55L149.56 218.89C149.9 218.53 150.307 218.247 150.78 218.04C151.253 217.827 151.763 217.72 152.31 217.72C153.037 217.72 153.7 217.9 154.3 218.26C154.9 218.613 155.377 219.09 155.73 219.69C156.09 220.283 156.27 220.947 156.27 221.68ZM161.213 228.18C160.693 228.147 160.189 228.043 159.702 227.87C159.223 227.69 158.796 227.447 158.423 227.14C158.049 226.833 157.763 226.467 157.563 226.04L159.623 225.16C159.703 225.293 159.833 225.437 160.013 225.59C160.193 225.737 160.406 225.86 160.653 225.96C160.906 226.06 161.183 226.11 161.483 226.11C161.736 226.11 161.976 226.077 162.202 226.01C162.436 225.937 162.623 225.827 162.763 225.68C162.909 225.533 162.983 225.343 162.983 225.11C162.983 224.863 162.896 224.673 162.723 224.54C162.556 224.4 162.343 224.297 162.083 224.23C161.829 224.157 161.583 224.09 161.343 224.03C160.709 223.903 160.119 223.707 159.573 223.44C159.033 223.173 158.596 222.83 158.263 222.41C157.936 221.983 157.773 221.47 157.773 220.87C157.773 220.21 157.946 219.64 158.293 219.16C158.646 218.68 159.103 218.31 159.663 218.05C160.229 217.79 160.839 217.66 161.493 217.66C162.286 217.66 163.013 217.827 163.673 218.16C164.339 218.487 164.866 218.95 165.253 219.55L163.323 220.69C163.229 220.53 163.099 220.383 162.933 220.25C162.766 220.11 162.576 219.997 162.363 219.91C162.149 219.817 161.926 219.763 161.693 219.75C161.393 219.737 161.119 219.763 160.873 219.83C160.626 219.897 160.426 220.01 160.273 220.17C160.126 220.33 160.053 220.543 160.053 220.81C160.053 221.063 160.153 221.253 160.353 221.38C160.553 221.5 160.793 221.593 161.073 221.66C161.359 221.727 161.633 221.8 161.893 221.88C162.479 222.073 163.029 222.31 163.543 222.59C164.063 222.87 164.479 223.213 164.793 223.62C165.106 224.027 165.256 224.513 165.243 225.08C165.243 225.727 165.049 226.293 164.663 226.78C164.276 227.26 163.776 227.627 163.163 227.88C162.556 228.133 161.906 228.233 161.213 228.18Z" fill="white"/>
<defs>
<linearGradient id="paint0_linear_25_170" x1="113" y1="51" x2="113" y2="151" gradientUnits="userSpaceOnUse">
<stop stop-color="#885EFE"/>
<stop offset="1" stop-color="#03071C"/>
</linearGradient>
</defs>
</svg>
