<svg width="234" height="64" viewBox="0 0 234 64" fill="none" xmlns="http://www.w3.org/2000/svg">
<rect width="234" height="64" rx="32" fill="#03071C"/>
<path d="M31.912 38.234C31.036 38.234 30.22 38.063 29.464 37.721C28.714 37.379 28.06 36.908 27.502 36.308C26.944 35.702 26.506 35.006 26.188 34.22C25.876 33.428 25.72 32.582 25.72 31.682C25.72 30.734 25.888 29.864 26.224 29.072C26.566 28.28 27.031 27.593 27.619 27.011C28.207 26.429 28.873 25.979 29.617 25.661C30.367 25.343 31.147 25.184 31.957 25.184C32.863 25.184 33.742 25.397 34.594 25.823C35.452 26.243 36.208 26.894 36.862 27.776L34.9 28.829C34.498 28.337 34.036 27.971 33.514 27.731C32.998 27.485 32.47 27.362 31.93 27.362C31.402 27.362 30.895 27.47 30.409 27.686C29.929 27.902 29.5 28.208 29.122 28.604C28.75 28.994 28.456 29.456 28.24 29.99C28.024 30.518 27.916 31.097 27.916 31.727C27.916 32.321 28.021 32.882 28.231 33.41C28.441 33.932 28.729 34.391 29.095 34.787C29.467 35.177 29.896 35.483 30.382 35.705C30.868 35.927 31.39 36.038 31.948 36.038C32.32 36.038 32.683 35.981 33.037 35.867C33.397 35.747 33.733 35.576 34.045 35.354C34.363 35.132 34.645 34.862 34.891 34.544C35.143 34.226 35.353 33.866 35.521 33.464H33.226V31.547H38.104C38.128 32.465 37.984 33.326 37.672 34.13C37.36 34.934 36.919 35.645 36.349 36.263C35.779 36.881 35.116 37.364 34.36 37.712C33.604 38.06 32.788 38.234 31.912 38.234ZM39.7558 38V25.4H47.6578V27.596H41.9518V30.152H46.4788V32.348H41.9518V35.804H47.6578V38H39.7558ZM59.1747 25.4V27.596H55.3227V38H53.1267V27.596H49.2747V25.4H59.1747ZM69.8328 38.234C69.1368 38.234 68.4678 38.126 67.8258 37.91C67.1898 37.688 66.6318 37.373 66.1518 36.965C65.6718 36.551 65.3268 36.056 65.1168 35.48L67.1778 34.724C67.2618 34.964 67.4328 35.183 67.6908 35.381C67.9488 35.579 68.2638 35.738 68.6358 35.858C69.0078 35.978 69.4068 36.038 69.8328 36.038C70.2708 36.038 70.6788 35.972 71.0568 35.84C71.4408 35.702 71.7498 35.513 71.9838 35.273C72.2178 35.027 72.3348 34.742 72.3348 34.418C72.3348 34.088 72.2118 33.818 71.9658 33.608C71.7198 33.392 71.4048 33.221 71.0208 33.095C70.6368 32.969 70.2408 32.873 69.8328 32.807C68.9388 32.669 68.1378 32.456 67.4298 32.168C66.7218 31.88 66.1608 31.481 65.7468 30.971C65.3388 30.461 65.1348 29.801 65.1348 28.991C65.1348 28.229 65.3538 27.563 65.7918 26.993C66.2298 26.423 66.8058 25.979 67.5198 25.661C68.2338 25.343 69.0048 25.184 69.8328 25.184C70.5228 25.184 71.1888 25.292 71.8308 25.508C72.4728 25.724 73.0338 26.039 73.5138 26.453C73.9998 26.867 74.3478 27.365 74.5578 27.947L72.4878 28.694C72.4038 28.454 72.2328 28.235 71.9748 28.037C71.7168 27.839 71.4018 27.683 71.0298 27.569C70.6578 27.449 70.2588 27.389 69.8328 27.389C69.4068 27.383 69.0018 27.452 68.6178 27.596C68.2398 27.734 67.9308 27.923 67.6908 28.163C67.4508 28.403 67.3308 28.679 67.3308 28.991C67.3308 29.393 67.4418 29.696 67.6638 29.9C67.8918 30.104 68.1948 30.254 68.5728 30.35C68.9508 30.44 69.3708 30.524 69.8328 30.602C70.6728 30.734 71.4498 30.956 72.1638 31.268C72.8778 31.58 73.4508 31.997 73.8828 32.519C74.3148 33.035 74.5308 33.668 74.5308 34.418C74.5308 35.18 74.3148 35.849 73.8828 36.425C73.4508 36.995 72.8778 37.439 72.1638 37.757C71.4498 38.075 70.6728 38.234 69.8328 38.234ZM85.6649 25.4V27.596H81.8129V38H79.6169V27.596H75.7649V25.4H85.6649ZM89.9522 25.4H92.4812L97.0622 38H94.7312L93.9212 35.768H88.5212L87.7112 38H85.3802L89.9522 25.4ZM89.3222 33.572H93.1112L91.2122 28.379L89.3222 33.572ZM98.5722 38V25.4H103.405C104.089 25.4 104.707 25.571 105.259 25.913C105.811 26.255 106.249 26.714 106.573 27.29C106.897 27.86 107.059 28.493 107.059 29.189C107.059 29.759 106.954 30.284 106.744 30.764C106.54 31.238 106.252 31.649 105.88 31.997C105.514 32.345 105.091 32.609 104.611 32.789L107.626 38H105.097L102.181 32.987H100.768V38H98.5722ZM100.768 30.791H103.153C103.465 30.791 103.75 30.713 104.008 30.557C104.266 30.401 104.473 30.191 104.629 29.927C104.785 29.663 104.863 29.369 104.863 29.045C104.863 28.715 104.785 28.418 104.629 28.154C104.473 27.89 104.266 27.68 104.008 27.524C103.75 27.368 103.465 27.29 103.153 27.29H100.768V30.791ZM118.624 25.4V27.596H114.772V38H112.576V27.596H108.724V25.4H118.624ZM120.422 38V25.4H128.324V27.596H122.618V30.152H127.145V32.348H122.618V35.804H128.324V38H120.422ZM130.353 38V25.4H134.529C135.399 25.4 136.212 25.565 136.968 25.895C137.73 26.219 138.399 26.672 138.975 27.254C139.557 27.83 140.01 28.499 140.334 29.261C140.664 30.017 140.829 30.83 140.829 31.7C140.829 32.57 140.664 33.386 140.334 34.148C140.01 34.904 139.557 35.573 138.975 36.155C138.399 36.731 137.73 37.184 136.968 37.514C136.212 37.838 135.399 38 134.529 38H130.353ZM132.549 35.804H134.529C135.087 35.804 135.612 35.699 136.104 35.489C136.602 35.273 137.04 34.979 137.418 34.607C137.796 34.229 138.093 33.794 138.309 33.302C138.525 32.804 138.633 32.27 138.633 31.7C138.633 31.13 138.525 30.599 138.309 30.107C138.093 29.615 137.796 29.18 137.418 28.802C137.04 28.424 136.605 28.13 136.113 27.92C135.621 27.704 135.093 27.596 134.529 27.596H132.549V35.804Z" fill="white"/>
<path d="M190 32H204" stroke="white" stroke-width="2" stroke-linecap="round" stroke-linejoin="round"/>
<path d="M197 25L204 32L197 39" stroke="white" stroke-width="2" stroke-linecap="round" stroke-linejoin="round"/>
</svg>
