<svg width="226" height="284" viewBox="0 0 226 284" fill="none" xmlns="http://www.w3.org/2000/svg">
<rect width="226" height="284" rx="20" fill="#0B0F26"/>
<circle cx="113" cy="101" r="50" fill="url(#paint0_linear_25_196)"/>
<path d="M98.4167 119.75H127.583C129.885 119.75 131.75 117.885 131.75 115.583V86.4167C131.75 84.1155 129.885 82.25 127.583 82.25H98.4167C96.1155 82.25 94.25 84.1155 94.25 86.4167V115.583C94.25 117.885 96.1155 119.75 98.4167 119.75Z" stroke="white" stroke-width="2" stroke-linecap="round" stroke-linejoin="round"/>
<path d="M117.167 111.417H123.417V92.6666H117.167V111.417Z" fill="white" stroke="white" stroke-width="2" stroke-linecap="round" stroke-linejoin="round"/>
<path d="M102.583 111.417H108.833V101H102.583V111.417Z" fill="white" stroke="white" stroke-width="2" stroke-linecap="round" stroke-linejoin="round"/>
<path d="M55.6719 228V214H58.1119V228H55.6719ZM71.4211 214V216.44H67.1411V228H64.7011V216.44H60.4211V214H71.4211ZM84.7034 228.26C83.7568 228.26 82.8668 228.073 82.0334 227.7C81.2001 227.32 80.4668 226.797 79.8334 226.13C79.2068 225.463 78.7134 224.693 78.3534 223.82C78.0001 222.94 77.8234 222 77.8234 221C77.8234 219.993 78.0001 219.053 78.3534 218.18C78.7134 217.3 79.2068 216.53 79.8334 215.87C80.4668 215.203 81.2001 214.683 82.0334 214.31C82.8668 213.93 83.7568 213.74 84.7034 213.74C85.8368 213.74 86.8801 214.003 87.8334 214.53C88.7868 215.05 89.5768 215.747 90.2034 216.62L88.0234 217.79C87.6301 217.303 87.1401 216.913 86.5534 216.62C85.9734 216.327 85.3568 216.18 84.7034 216.18C84.0901 216.18 83.5134 216.307 82.9734 216.56C82.4334 216.807 81.9601 217.153 81.5534 217.6C81.1468 218.04 80.8301 218.553 80.6034 219.14C80.3768 219.72 80.2634 220.34 80.2634 221C80.2634 221.667 80.3768 222.29 80.6034 222.87C80.8368 223.45 81.1568 223.963 81.5634 224.41C81.9701 224.85 82.4401 225.197 82.9734 225.45C83.5134 225.697 84.0901 225.82 84.7034 225.82C85.3701 225.82 85.9901 225.673 86.5634 225.38C87.1434 225.08 87.6301 224.687 88.0234 224.2L90.2034 225.38C89.5768 226.247 88.7868 226.943 87.8334 227.47C86.8801 227.997 85.8368 228.26 84.7034 228.26ZM95.9633 228.26C95.0433 228.26 94.2033 228.023 93.4433 227.55C92.6899 227.077 92.0866 226.443 91.6333 225.65C91.1866 224.85 90.9633 223.967 90.9633 223C90.9633 222.267 91.0933 221.583 91.3533 220.95C91.6133 220.31 91.9699 219.75 92.4233 219.27C92.8833 218.783 93.4166 218.403 94.0233 218.13C94.6299 217.857 95.2766 217.72 95.9633 217.72C96.8833 217.72 97.7199 217.957 98.4733 218.43C99.2333 218.903 99.8366 219.54 100.283 220.34C100.737 221.14 100.963 222.027 100.963 223C100.963 223.727 100.833 224.407 100.573 225.04C100.313 225.673 99.9533 226.233 99.4933 226.72C99.0399 227.2 98.5099 227.577 97.9033 227.85C97.3033 228.123 96.6566 228.26 95.9633 228.26ZM95.9633 225.82C96.4499 225.82 96.8866 225.69 97.2733 225.43C97.6599 225.17 97.9633 224.827 98.1833 224.4C98.4099 223.973 98.5233 223.507 98.5233 223C98.5233 222.48 98.4066 222.007 98.1733 221.58C97.9466 221.147 97.6366 220.803 97.2433 220.55C96.8566 220.29 96.4299 220.16 95.9633 220.16C95.4833 220.16 95.0499 220.29 94.6633 220.55C94.2766 220.81 93.9699 221.157 93.7433 221.59C93.5166 222.023 93.4033 222.493 93.4033 223C93.4033 223.527 93.5199 224.003 93.7533 224.43C93.9866 224.857 94.2966 225.197 94.6833 225.45C95.0766 225.697 95.5033 225.82 95.9633 225.82ZM111.68 221.68V228H109.24V222.32C109.24 221.927 109.144 221.57 108.95 221.25C108.757 220.923 108.497 220.667 108.17 220.48C107.85 220.287 107.494 220.19 107.1 220.19C106.707 220.19 106.347 220.287 106.02 220.48C105.7 220.667 105.444 220.923 105.25 221.25C105.064 221.57 104.97 221.927 104.97 222.32V228H102.53L102.52 218H104.96L104.97 218.89C105.31 218.53 105.717 218.247 106.19 218.04C106.664 217.827 107.174 217.72 107.72 217.72C108.447 217.72 109.11 217.9 109.71 218.26C110.31 218.613 110.787 219.09 111.14 219.69C111.5 220.283 111.68 220.947 111.68 221.68ZM116.623 228.18C116.103 228.147 115.599 228.043 115.113 227.87C114.633 227.69 114.206 227.447 113.833 227.14C113.459 226.833 113.173 226.467 112.973 226.04L115.033 225.16C115.113 225.293 115.243 225.437 115.423 225.59C115.603 225.737 115.816 225.86 116.063 225.96C116.316 226.06 116.593 226.11 116.893 226.11C117.146 226.11 117.386 226.077 117.613 226.01C117.846 225.937 118.033 225.827 118.173 225.68C118.319 225.533 118.393 225.343 118.393 225.11C118.393 224.863 118.306 224.673 118.133 224.54C117.966 224.4 117.753 224.297 117.493 224.23C117.239 224.157 116.993 224.09 116.753 224.03C116.119 223.903 115.529 223.707 114.983 223.44C114.443 223.173 114.006 222.83 113.673 222.41C113.346 221.983 113.183 221.47 113.183 220.87C113.183 220.21 113.356 219.64 113.703 219.16C114.056 218.68 114.513 218.31 115.073 218.05C115.639 217.79 116.249 217.66 116.903 217.66C117.696 217.66 118.423 217.827 119.083 218.16C119.749 218.487 120.276 218.95 120.663 219.55L118.733 220.69C118.639 220.53 118.509 220.383 118.343 220.25C118.176 220.11 117.986 219.997 117.773 219.91C117.559 219.817 117.336 219.763 117.103 219.75C116.803 219.737 116.529 219.763 116.283 219.83C116.036 219.897 115.836 220.01 115.683 220.17C115.536 220.33 115.463 220.543 115.463 220.81C115.463 221.063 115.563 221.253 115.763 221.38C115.963 221.5 116.203 221.593 116.483 221.66C116.769 221.727 117.043 221.8 117.303 221.88C117.889 222.073 118.439 222.31 118.953 222.59C119.473 222.87 119.889 223.213 120.203 223.62C120.516 224.027 120.666 224.513 120.653 225.08C120.653 225.727 120.459 226.293 120.073 226.78C119.686 227.26 119.186 227.627 118.573 227.88C117.966 228.133 117.316 228.233 116.623 228.18ZM121.964 224.3V218H124.404V223.66C124.404 224.053 124.501 224.413 124.694 224.74C124.887 225.06 125.144 225.317 125.464 225.51C125.791 225.697 126.147 225.79 126.534 225.79C126.934 225.79 127.294 225.697 127.614 225.51C127.934 225.317 128.191 225.06 128.384 224.74C128.577 224.413 128.674 224.053 128.674 223.66V218H131.114L131.124 228H128.684L128.674 227.09C128.327 227.45 127.917 227.737 127.444 227.95C126.971 228.157 126.464 228.26 125.924 228.26C125.197 228.26 124.534 228.083 123.934 227.73C123.334 227.37 122.854 226.893 122.494 226.3C122.141 225.7 121.964 225.033 121.964 224.3ZM133.184 228V213H135.624V228H133.184ZM143.388 220.44H141.448V228H139.008V220.44H137.528V218H139.008V214.86H141.448V218H143.388V220.44ZM145.04 218H147.48V228H145.04V218ZM146.28 216.71C145.92 216.71 145.617 216.593 145.37 216.36C145.123 216.12 145 215.82 145 215.46C145 215.107 145.123 214.81 145.37 214.57C145.617 214.33 145.917 214.21 146.27 214.21C146.623 214.21 146.92 214.33 147.16 214.57C147.407 214.81 147.53 215.107 147.53 215.46C147.53 215.82 147.41 216.12 147.17 216.36C146.93 216.593 146.633 216.71 146.28 216.71ZM158.965 221.68V228H156.525V222.32C156.525 221.927 156.429 221.57 156.235 221.25C156.042 220.923 155.782 220.667 155.455 220.48C155.135 220.287 154.779 220.19 154.385 220.19C153.992 220.19 153.632 220.287 153.305 220.48C152.985 220.667 152.729 220.923 152.535 221.25C152.349 221.57 152.255 221.927 152.255 222.32V228H149.815L149.805 218H152.245L152.255 218.89C152.595 218.53 153.002 218.247 153.475 218.04C153.949 217.827 154.459 217.72 155.005 217.72C155.732 217.72 156.395 217.9 156.995 218.26C157.595 218.613 158.072 219.09 158.425 219.69C158.785 220.283 158.965 220.947 158.965 221.68ZM168.183 218H170.623V228.19C170.623 228.91 170.476 229.563 170.183 230.15C169.889 230.743 169.489 231.25 168.983 231.67C168.476 232.097 167.896 232.423 167.243 232.65C166.589 232.883 165.903 233 165.183 233C164.483 233 163.809 232.857 163.163 232.57C162.516 232.283 161.943 231.89 161.443 231.39C160.949 230.897 160.573 230.333 160.313 229.7L162.543 228.69C162.676 229.057 162.876 229.377 163.143 229.65C163.416 229.93 163.729 230.147 164.083 230.3C164.436 230.46 164.803 230.54 165.183 230.54C165.569 230.54 165.939 230.487 166.293 230.38C166.653 230.273 166.976 230.117 167.263 229.91C167.549 229.71 167.773 229.463 167.933 229.17C168.099 228.883 168.183 228.557 168.183 228.19V226.78C167.869 227.22 167.476 227.577 167.003 227.85C166.529 228.123 165.983 228.26 165.363 228.26C164.643 228.26 163.969 228.123 163.343 227.85C162.716 227.577 162.163 227.2 161.683 226.72C161.209 226.233 160.836 225.673 160.563 225.04C160.296 224.407 160.163 223.727 160.163 223C160.163 222.273 160.296 221.593 160.563 220.96C160.836 220.327 161.209 219.77 161.683 219.29C162.163 218.803 162.716 218.423 163.343 218.15C163.969 217.877 164.643 217.74 165.363 217.74C165.983 217.74 166.529 217.877 167.003 218.15C167.476 218.417 167.869 218.77 168.183 219.21V218ZM165.393 225.91C165.906 225.91 166.359 225.78 166.753 225.52C167.153 225.253 167.466 224.9 167.693 224.46C167.919 224.013 168.033 223.527 168.033 223C168.033 222.467 167.916 221.98 167.683 221.54C167.456 221.1 167.143 220.747 166.743 220.48C166.349 220.213 165.899 220.08 165.393 220.08C164.893 220.08 164.436 220.213 164.023 220.48C163.609 220.74 163.279 221.09 163.033 221.53C162.786 221.97 162.663 222.46 162.663 223C162.663 223.54 162.786 224.03 163.033 224.47C163.279 224.91 163.609 225.26 164.023 225.52C164.436 225.78 164.893 225.91 165.393 225.91Z" fill="white"/>
<defs>
<linearGradient id="paint0_linear_25_196" x1="113" y1="51" x2="113" y2="151" gradientUnits="userSpaceOnUse">
<stop stop-color="#885EFE"/>
<stop offset="1" stop-color="#03071C"/>
</linearGradient>
</defs>
</svg>
