<svg width="226" height="284" viewBox="0 0 226 284" fill="none" xmlns="http://www.w3.org/2000/svg">
<rect width="226" height="284" rx="20" fill="#0B0F26"/>
<circle cx="113" cy="101" r="50" fill="url(#paint0_linear_25_188)"/>
<path d="M98.4167 119.75H127.583C129.885 119.75 131.75 117.885 131.75 115.583V86.4167C131.75 84.1155 129.885 82.25 127.583 82.25H98.4167C96.1155 82.25 94.25 84.1155 94.25 86.4167V115.583C94.25 117.885 96.1155 119.75 98.4167 119.75Z" stroke="white" stroke-width="2" stroke-linecap="round" stroke-linejoin="round"/>
<path d="M117.167 111.417H123.417V92.6666H117.167V111.417Z" fill="white" stroke="white" stroke-width="2" stroke-linecap="round" stroke-linejoin="round"/>
<path d="M102.583 111.417H108.833V101H102.583V111.417Z" fill="white" stroke="white" stroke-width="2" stroke-linecap="round" stroke-linejoin="round"/>
<path d="M56.9344 228V214H59.5744L65.4844 223.59V214H67.9244V228H65.2944L59.3744 218.41V228H56.9344ZM74.5766 228.26C73.6566 228.26 72.8166 228.023 72.0566 227.55C71.3032 227.077 70.6999 226.44 70.2466 225.64C69.7999 224.84 69.5766 223.957 69.5766 222.99C69.5766 222.263 69.7066 221.583 69.9666 220.95C70.2266 220.31 70.5832 219.75 71.0366 219.27C71.4966 218.783 72.0299 218.403 72.6366 218.13C73.2432 217.857 73.8899 217.72 74.5766 217.72C75.3566 217.72 76.0699 217.887 76.7166 218.22C77.3699 218.547 77.9232 218.997 78.3766 219.57C78.8299 220.143 79.1599 220.797 79.3666 221.53C79.5732 222.263 79.6199 223.03 79.5066 223.83H72.1966C72.2899 224.203 72.4432 224.54 72.6566 224.84C72.8699 225.133 73.1399 225.37 73.4666 225.55C73.7932 225.723 74.1632 225.813 74.5766 225.82C75.0032 225.827 75.3899 225.727 75.7366 225.52C76.0899 225.307 76.3832 225.02 76.6166 224.66L79.1066 225.24C78.6999 226.127 78.0932 226.853 77.2866 227.42C76.4799 227.98 75.5766 228.26 74.5766 228.26ZM72.1166 222H77.0366C76.9632 221.6 76.8066 221.24 76.5666 220.92C76.3332 220.593 76.0432 220.333 75.6966 220.14C75.3499 219.947 74.9766 219.85 74.5766 219.85C74.1766 219.85 73.8066 219.947 73.4666 220.14C73.1266 220.327 72.8366 220.583 72.5966 220.91C72.3632 221.23 72.2032 221.593 72.1166 222ZM85.8248 228H83.4048L80.0648 218H82.4548L84.6248 224.47L86.7848 218H89.1948L91.3548 224.47L93.5248 218H95.9148L92.5748 228H90.1548L87.9848 221.5L85.8248 228ZM102.52 228V214H107.52C108.28 214 108.967 214.19 109.58 214.57C110.2 214.95 110.69 215.46 111.05 216.1C111.41 216.74 111.59 217.443 111.59 218.21C111.59 218.997 111.404 219.71 111.03 220.35C110.664 220.983 110.17 221.49 109.55 221.87C108.93 222.243 108.254 222.43 107.52 222.43H104.96V228H102.52ZM104.96 219.99H107.26C107.607 219.99 107.924 219.903 108.21 219.73C108.497 219.557 108.724 219.323 108.89 219.03C109.064 218.737 109.15 218.41 109.15 218.05C109.15 217.683 109.064 217.353 108.89 217.06C108.724 216.767 108.497 216.533 108.21 216.36C107.924 216.187 107.607 216.1 107.26 216.1H104.96V219.99ZM113.155 228L113.145 218H115.585L115.595 218.89C115.935 218.53 116.342 218.247 116.815 218.04C117.289 217.827 117.799 217.72 118.345 217.72C118.712 217.72 119.079 217.773 119.445 217.88L118.485 220.34C118.232 220.24 117.979 220.19 117.725 220.19C117.332 220.19 116.972 220.287 116.645 220.48C116.325 220.667 116.069 220.923 115.875 221.25C115.689 221.57 115.595 221.927 115.595 222.32V228H113.155ZM124.498 228.26C123.578 228.26 122.738 228.023 121.978 227.55C121.225 227.077 120.622 226.443 120.168 225.65C119.722 224.85 119.498 223.967 119.498 223C119.498 222.267 119.628 221.583 119.888 220.95C120.148 220.31 120.505 219.75 120.958 219.27C121.418 218.783 121.952 218.403 122.558 218.13C123.165 217.857 123.812 217.72 124.498 217.72C125.418 217.72 126.255 217.957 127.008 218.43C127.768 218.903 128.372 219.54 128.818 220.34C129.272 221.14 129.498 222.027 129.498 223C129.498 223.727 129.368 224.407 129.108 225.04C128.848 225.673 128.488 226.233 128.028 226.72C127.575 227.2 127.045 227.577 126.438 227.85C125.838 228.123 125.192 228.26 124.498 228.26ZM124.498 225.82C124.985 225.82 125.422 225.69 125.808 225.43C126.195 225.17 126.498 224.827 126.718 224.4C126.945 223.973 127.058 223.507 127.058 223C127.058 222.48 126.942 222.007 126.708 221.58C126.482 221.147 126.172 220.803 125.778 220.55C125.392 220.29 124.965 220.16 124.498 220.16C124.018 220.16 123.585 220.29 123.198 220.55C122.812 220.81 122.505 221.157 122.278 221.59C122.052 222.023 121.938 222.493 121.938 223C121.938 223.527 122.055 224.003 122.288 224.43C122.522 224.857 122.832 225.197 123.218 225.45C123.612 225.697 124.038 225.82 124.498 225.82ZM138.655 213H141.095V228H138.655V226.75C138.335 227.197 137.931 227.56 137.445 227.84C136.958 228.12 136.395 228.26 135.755 228.26C135.028 228.26 134.348 228.123 133.715 227.85C133.081 227.577 132.521 227.2 132.035 226.72C131.555 226.233 131.178 225.673 130.905 225.04C130.631 224.407 130.495 223.727 130.495 223C130.495 222.273 130.631 221.593 130.905 220.96C131.178 220.327 131.555 219.77 132.035 219.29C132.521 218.803 133.081 218.423 133.715 218.15C134.348 217.877 135.028 217.74 135.755 217.74C136.395 217.74 136.958 217.88 137.445 218.16C137.931 218.433 138.335 218.797 138.655 219.25V213ZM135.785 225.91C136.305 225.91 136.765 225.78 137.165 225.52C137.565 225.26 137.878 224.91 138.105 224.47C138.331 224.023 138.445 223.533 138.445 223C138.445 222.46 138.331 221.97 138.105 221.53C137.878 221.083 137.561 220.73 137.155 220.47C136.755 220.21 136.298 220.08 135.785 220.08C135.271 220.08 134.801 220.213 134.375 220.48C133.955 220.74 133.618 221.09 133.365 221.53C133.118 221.97 132.995 222.46 132.995 223C132.995 223.54 133.121 224.03 133.375 224.47C133.628 224.91 133.965 225.26 134.385 225.52C134.811 225.78 135.278 225.91 135.785 225.91ZM143.097 224.3V218H145.537V223.66C145.537 224.053 145.634 224.413 145.827 224.74C146.02 225.06 146.277 225.317 146.597 225.51C146.924 225.697 147.28 225.79 147.667 225.79C148.067 225.79 148.427 225.697 148.747 225.51C149.067 225.317 149.324 225.06 149.517 224.74C149.71 224.413 149.807 224.053 149.807 223.66V218H152.247L152.257 228H149.817L149.807 227.09C149.46 227.45 149.05 227.737 148.577 227.95C148.104 228.157 147.597 228.26 147.057 228.26C146.33 228.26 145.667 228.083 145.067 227.73C144.467 227.37 143.987 226.893 143.627 226.3C143.274 225.7 143.097 225.033 143.097 224.3ZM160.302 224.99L162.502 226.18C162.042 226.807 161.466 227.31 160.772 227.69C160.079 228.07 159.322 228.26 158.502 228.26C157.582 228.26 156.742 228.023 155.982 227.55C155.229 227.077 154.626 226.443 154.172 225.65C153.726 224.85 153.502 223.967 153.502 223C153.502 222.267 153.632 221.583 153.892 220.95C154.152 220.31 154.509 219.75 154.962 219.27C155.422 218.783 155.956 218.403 156.562 218.13C157.169 217.857 157.816 217.72 158.502 217.72C159.322 217.72 160.079 217.91 160.772 218.29C161.466 218.67 162.042 219.18 162.502 219.82L160.302 221C160.069 220.733 159.792 220.527 159.472 220.38C159.159 220.233 158.836 220.16 158.502 220.16C158.022 220.16 157.589 220.293 157.202 220.56C156.816 220.82 156.509 221.167 156.282 221.6C156.056 222.027 155.942 222.493 155.942 223C155.942 223.5 156.056 223.967 156.282 224.4C156.509 224.827 156.816 225.17 157.202 225.43C157.589 225.69 158.022 225.82 158.502 225.82C158.849 225.82 159.179 225.747 159.492 225.6C159.806 225.447 160.076 225.243 160.302 224.99ZM169.658 220.44H167.718V228H165.278V220.44H163.798V218H165.278V214.86H167.718V218H169.658V220.44ZM54.2098 252V238H58.8498C59.8164 238 60.7198 238.183 61.5598 238.55C62.4064 238.91 63.1498 239.413 63.7898 240.06C64.4364 240.7 64.9398 241.443 65.2998 242.29C65.6664 243.13 65.8498 244.033 65.8498 245C65.8498 245.967 65.6664 246.873 65.2998 247.72C64.9398 248.56 64.4364 249.303 63.7898 249.95C63.1498 250.59 62.4064 251.093 61.5598 251.46C60.7198 251.82 59.8164 252 58.8498 252H54.2098ZM56.6498 249.56H58.8498C59.4698 249.56 60.0531 249.443 60.5998 249.21C61.1531 248.97 61.6398 248.643 62.0598 248.23C62.4798 247.81 62.8098 247.327 63.0498 246.78C63.2898 246.227 63.4098 245.633 63.4098 245C63.4098 244.367 63.2898 243.777 63.0498 243.23C62.8098 242.683 62.4798 242.2 62.0598 241.78C61.6398 241.36 61.1564 241.033 60.6098 240.8C60.0631 240.56 59.4764 240.44 58.8498 240.44H56.6498V249.56ZM71.7348 252.26C70.8148 252.26 69.9748 252.023 69.2148 251.55C68.4614 251.077 67.8581 250.44 67.4048 249.64C66.9581 248.84 66.7348 247.957 66.7348 246.99C66.7348 246.263 66.8648 245.583 67.1248 244.95C67.3848 244.31 67.7414 243.75 68.1948 243.27C68.6548 242.783 69.1881 242.403 69.7948 242.13C70.4014 241.857 71.0481 241.72 71.7348 241.72C72.5148 241.72 73.2281 241.887 73.8748 242.22C74.5281 242.547 75.0814 242.997 75.5348 243.57C75.9881 244.143 76.3181 244.797 76.5248 245.53C76.7314 246.263 76.7781 247.03 76.6648 247.83H69.3548C69.4481 248.203 69.6014 248.54 69.8148 248.84C70.0281 249.133 70.2981 249.37 70.6248 249.55C70.9514 249.723 71.3214 249.813 71.7348 249.82C72.1614 249.827 72.5481 249.727 72.8948 249.52C73.2481 249.307 73.5414 249.02 73.7748 248.66L76.2648 249.24C75.8581 250.127 75.2514 250.853 74.4448 251.42C73.6381 251.98 72.7348 252.26 71.7348 252.26ZM69.2748 246H74.1948C74.1214 245.6 73.9648 245.24 73.7248 244.92C73.4914 244.593 73.2014 244.333 72.8548 244.14C72.5081 243.947 72.1348 243.85 71.7348 243.85C71.3348 243.85 70.9648 243.947 70.6248 244.14C70.2848 244.327 69.9948 244.583 69.7548 244.91C69.5214 245.23 69.3614 245.593 69.2748 246ZM84.013 252H80.863L77.223 241.99H79.823L82.443 249.19L85.053 241.99H87.653L84.013 252ZM93.141 252.26C92.221 252.26 91.381 252.023 90.621 251.55C89.8677 251.077 89.2643 250.44 88.811 249.64C88.3643 248.84 88.141 247.957 88.141 246.99C88.141 246.263 88.271 245.583 88.531 244.95C88.791 244.31 89.1477 243.75 89.601 243.27C90.061 242.783 90.5943 242.403 91.201 242.13C91.8077 241.857 92.4543 241.72 93.141 241.72C93.921 241.72 94.6343 241.887 95.281 242.22C95.9343 242.547 96.4877 242.997 96.941 243.57C97.3943 244.143 97.7243 244.797 97.931 245.53C98.1377 246.263 98.1843 247.03 98.071 247.83H90.761C90.8543 248.203 91.0077 248.54 91.221 248.84C91.4343 249.133 91.7043 249.37 92.031 249.55C92.3577 249.723 92.7277 249.813 93.141 249.82C93.5677 249.827 93.9543 249.727 94.301 249.52C94.6543 249.307 94.9477 249.02 95.181 248.66L97.671 249.24C97.2643 250.127 96.6577 250.853 95.851 251.42C95.0443 251.98 94.141 252.26 93.141 252.26ZM90.681 246H95.601C95.5277 245.6 95.371 245.24 95.131 244.92C94.8977 244.593 94.6077 244.333 94.261 244.14C93.9143 243.947 93.541 243.85 93.141 243.85C92.741 243.85 92.371 243.947 92.031 244.14C91.691 244.327 91.401 244.583 91.161 244.91C90.9277 245.23 90.7677 245.593 90.681 246ZM99.5418 252V237H101.982V252H99.5418ZM108.629 252.26C107.709 252.26 106.869 252.023 106.109 251.55C105.356 251.077 104.753 250.443 104.299 249.65C103.853 248.85 103.629 247.967 103.629 247C103.629 246.267 103.759 245.583 104.019 244.95C104.279 244.31 104.636 243.75 105.089 243.27C105.549 242.783 106.083 242.403 106.689 242.13C107.296 241.857 107.943 241.72 108.629 241.72C109.549 241.72 110.386 241.957 111.139 242.43C111.899 242.903 112.503 243.54 112.949 244.34C113.403 245.14 113.629 246.027 113.629 247C113.629 247.727 113.499 248.407 113.239 249.04C112.979 249.673 112.619 250.233 112.159 250.72C111.706 251.2 111.176 251.577 110.569 251.85C109.969 252.123 109.323 252.26 108.629 252.26ZM108.629 249.82C109.116 249.82 109.553 249.69 109.939 249.43C110.326 249.17 110.629 248.827 110.849 248.4C111.076 247.973 111.189 247.507 111.189 247C111.189 246.48 111.073 246.007 110.839 245.58C110.613 245.147 110.303 244.803 109.909 244.55C109.523 244.29 109.096 244.16 108.629 244.16C108.149 244.16 107.716 244.29 107.329 244.55C106.943 244.81 106.636 245.157 106.409 245.59C106.183 246.023 106.069 246.493 106.069 247C106.069 247.527 106.186 248.003 106.419 248.43C106.653 248.857 106.963 249.197 107.349 249.45C107.743 249.697 108.169 249.82 108.629 249.82ZM117.626 257H115.186V242H117.626V243.27C117.953 242.817 118.353 242.45 118.826 242.17C119.306 241.883 119.866 241.74 120.506 241.74C121.24 241.74 121.923 241.877 122.556 242.15C123.19 242.423 123.746 242.803 124.226 243.29C124.713 243.77 125.09 244.327 125.356 244.96C125.63 245.593 125.766 246.273 125.766 247C125.766 247.727 125.63 248.41 125.356 249.05C125.09 249.69 124.713 250.253 124.226 250.74C123.746 251.22 123.19 251.597 122.556 251.87C121.923 252.143 121.24 252.28 120.506 252.28C119.866 252.28 119.306 252.14 118.826 251.86C118.353 251.573 117.953 251.203 117.626 250.75V257ZM120.476 244.09C119.97 244.09 119.516 244.223 119.116 244.49C118.716 244.75 118.403 245.1 118.176 245.54C117.95 245.98 117.836 246.467 117.836 247C117.836 247.533 117.95 248.023 118.176 248.47C118.403 248.91 118.716 249.263 119.116 249.53C119.516 249.79 119.97 249.92 120.476 249.92C120.99 249.92 121.46 249.79 121.886 249.53C122.313 249.27 122.653 248.92 122.906 248.48C123.16 248.033 123.286 247.54 123.286 247C123.286 246.467 123.16 245.98 122.906 245.54C122.653 245.1 122.313 244.75 121.886 244.49C121.466 244.223 120.996 244.09 120.476 244.09ZM127.335 252V242H129.775V242.89C130.115 242.53 130.521 242.247 130.995 242.04C131.468 241.827 131.978 241.72 132.525 241.72C133.218 241.72 133.855 241.883 134.435 242.21C135.021 242.537 135.488 242.973 135.835 243.52C136.188 242.973 136.655 242.537 137.235 242.21C137.815 241.883 138.451 241.72 139.145 241.72C139.878 241.72 140.541 241.9 141.135 242.26C141.735 242.613 142.211 243.09 142.565 243.69C142.925 244.283 143.105 244.947 143.105 245.68V252H140.665V246.33C140.665 245.943 140.568 245.59 140.375 245.27C140.188 244.943 139.935 244.683 139.615 244.49C139.301 244.29 138.948 244.19 138.555 244.19C138.161 244.19 137.805 244.287 137.485 244.48C137.171 244.667 136.918 244.92 136.725 245.24C136.531 245.56 136.435 245.923 136.435 246.33V252H133.995V246.33C133.995 245.923 133.901 245.56 133.715 245.24C133.528 244.92 133.275 244.667 132.955 244.48C132.635 244.287 132.278 244.19 131.885 244.19C131.498 244.19 131.145 244.29 130.825 244.49C130.505 244.683 130.248 244.943 130.055 245.27C129.868 245.59 129.775 245.943 129.775 246.33V252H127.335ZM149.313 252.26C148.393 252.26 147.553 252.023 146.793 251.55C146.04 251.077 145.436 250.44 144.983 249.64C144.536 248.84 144.313 247.957 144.313 246.99C144.313 246.263 144.443 245.583 144.703 244.95C144.963 244.31 145.32 243.75 145.773 243.27C146.233 242.783 146.766 242.403 147.373 242.13C147.98 241.857 148.626 241.72 149.313 241.72C150.093 241.72 150.806 241.887 151.453 242.22C152.106 242.547 152.66 242.997 153.113 243.57C153.566 244.143 153.896 244.797 154.103 245.53C154.31 246.263 154.356 247.03 154.243 247.83H146.933C147.026 248.203 147.18 248.54 147.393 248.84C147.606 249.133 147.876 249.37 148.203 249.55C148.53 249.723 148.9 249.813 149.313 249.82C149.74 249.827 150.126 249.727 150.473 249.52C150.826 249.307 151.12 249.02 151.353 248.66L153.843 249.24C153.436 250.127 152.83 250.853 152.023 251.42C151.216 251.98 150.313 252.26 149.313 252.26ZM146.853 246H151.773C151.7 245.6 151.543 245.24 151.303 244.92C151.07 244.593 150.78 244.333 150.433 244.14C150.086 243.947 149.713 243.85 149.313 243.85C148.913 243.85 148.543 243.947 148.203 244.14C147.863 244.327 147.573 244.583 147.333 244.91C147.1 245.23 146.94 245.593 146.853 246ZM165.03 245.68V252H162.59V246.32C162.59 245.927 162.493 245.57 162.3 245.25C162.107 244.923 161.847 244.667 161.52 244.48C161.2 244.287 160.843 244.19 160.45 244.19C160.057 244.19 159.697 244.287 159.37 244.48C159.05 244.667 158.793 244.923 158.6 245.25C158.413 245.57 158.32 245.927 158.32 246.32V252H155.88L155.87 242H158.31L158.32 242.89C158.66 242.53 159.067 242.247 159.54 242.04C160.013 241.827 160.523 241.72 161.07 241.72C161.797 241.72 162.46 241.9 163.06 242.26C163.66 242.613 164.137 243.09 164.49 243.69C164.85 244.283 165.03 244.947 165.03 245.68ZM172.382 244.44H170.442V252H168.002V244.44H166.522V242H168.002V238.86H170.442V242H172.382V244.44Z" fill="white"/>
<defs>
<linearGradient id="paint0_linear_25_188" x1="113" y1="51" x2="113" y2="151" gradientUnits="userSpaceOnUse">
<stop stop-color="#885EFE"/>
<stop offset="1" stop-color="#03071C"/>
</linearGradient>
</defs>
</svg>
