<svg width="264" height="72" viewBox="0 0 264 72" fill="none" xmlns="http://www.w3.org/2000/svg">
<rect width="264" height="72" rx="36" fill="#885EFE"/>
<path d="M32.68 43.26C31.7067 43.26 30.8 43.07 29.96 42.69C29.1267 42.31 28.4 41.7867 27.78 41.12C27.16 40.4467 26.6733 39.6733 26.32 38.8C25.9733 37.92 25.8 36.98 25.8 35.98C25.8 34.9267 25.9867 33.96 26.36 33.08C26.74 32.2 27.2567 31.4367 27.91 30.79C28.5633 30.1433 29.3033 29.6433 30.13 29.29C30.9633 28.9367 31.83 28.76 32.73 28.76C33.7367 28.76 34.7133 28.9967 35.66 29.47C36.6133 29.9367 37.4533 30.66 38.18 31.64L36 32.81C35.5533 32.2633 35.04 31.8567 34.46 31.59C33.8867 31.3167 33.3 31.18 32.7 31.18C32.1133 31.18 31.55 31.3 31.01 31.54C30.4767 31.78 30 32.12 29.58 32.56C29.1667 32.9933 28.84 33.5067 28.6 34.1C28.36 34.6867 28.24 35.33 28.24 36.03C28.24 36.69 28.3567 37.3133 28.59 37.9C28.8233 38.48 29.1433 38.99 29.55 39.43C29.9633 39.8633 30.44 40.2033 30.98 40.45C31.52 40.6967 32.1 40.82 32.72 40.82C33.1333 40.82 33.5367 40.7567 33.93 40.63C34.33 40.4967 34.7033 40.3067 35.05 40.06C35.4033 39.8133 35.7167 39.5133 35.99 39.16C36.27 38.8067 36.5033 38.4067 36.69 37.96H34.14V35.83H39.56C39.5867 36.85 39.4267 37.8067 39.08 38.7C38.7333 39.5933 38.2433 40.3833 37.61 41.07C36.9767 41.7567 36.24 42.2933 35.4 42.68C34.56 43.0667 33.6533 43.26 32.68 43.26ZM41.3953 43V29H50.1753V31.44H43.8353V34.28H48.8653V36.72H43.8353V40.56H50.1753V43H41.3953ZM62.9719 29V31.44H58.6919V43H56.2519V31.44H51.9719V29H62.9719ZM74.8142 43.26C74.0409 43.26 73.2976 43.14 72.5842 42.9C71.8776 42.6533 71.2576 42.3033 70.7242 41.85C70.1909 41.39 69.8076 40.84 69.5742 40.2L71.8642 39.36C71.9576 39.6267 72.1476 39.87 72.4342 40.09C72.7209 40.31 73.0709 40.4867 73.4842 40.62C73.8976 40.7533 74.3409 40.82 74.8142 40.82C75.3009 40.82 75.7542 40.7467 76.1742 40.6C76.6009 40.4467 76.9442 40.2367 77.2042 39.97C77.4642 39.6967 77.5942 39.38 77.5942 39.02C77.5942 38.6533 77.4576 38.3533 77.1842 38.12C76.9109 37.88 76.5609 37.69 76.1342 37.55C75.7076 37.41 75.2676 37.3033 74.8142 37.23C73.8209 37.0767 72.9309 36.84 72.1442 36.52C71.3576 36.2 70.7342 35.7567 70.2742 35.19C69.8209 34.6233 69.5942 33.89 69.5942 32.99C69.5942 32.1433 69.8376 31.4033 70.3242 30.77C70.8109 30.1367 71.4509 29.6433 72.2442 29.29C73.0376 28.9367 73.8942 28.76 74.8142 28.76C75.5809 28.76 76.3209 28.88 77.0342 29.12C77.7476 29.36 78.3709 29.71 78.9042 30.17C79.4442 30.63 79.8309 31.1833 80.0642 31.83L77.7642 32.66C77.6709 32.3933 77.4809 32.15 77.1942 31.93C76.9076 31.71 76.5576 31.5367 76.1442 31.41C75.7309 31.2767 75.2876 31.21 74.8142 31.21C74.3409 31.2033 73.8909 31.28 73.4642 31.44C73.0442 31.5933 72.7009 31.8033 72.4342 32.07C72.1676 32.3367 72.0342 32.6433 72.0342 32.99C72.0342 33.4367 72.1576 33.7733 72.4042 34C72.6576 34.2267 72.9942 34.3933 73.4142 34.5C73.8342 34.6 74.3009 34.6933 74.8142 34.78C75.7476 34.9267 76.6109 35.1733 77.4042 35.52C78.1976 35.8667 78.8342 36.33 79.3142 36.91C79.7942 37.4833 80.0342 38.1867 80.0342 39.02C80.0342 39.8667 79.7942 40.61 79.3142 41.25C78.8342 41.8833 78.1976 42.3767 77.4042 42.73C76.6109 43.0833 75.7476 43.26 74.8142 43.26ZM92.4055 29V31.44H88.1255V43H85.6855V31.44H81.4055V29H92.4055ZM97.1691 29H99.9791L105.069 43H102.479L101.579 40.52H95.5791L94.6791 43H92.0891L97.1691 29ZM96.4691 38.08H100.679L98.5691 32.31L96.4691 38.08ZM106.747 43V29H112.117C112.877 29 113.564 29.19 114.177 29.57C114.79 29.95 115.277 30.46 115.637 31.1C115.997 31.7333 116.177 32.4367 116.177 33.21C116.177 33.8433 116.06 34.4267 115.827 34.96C115.6 35.4867 115.28 35.9433 114.867 36.33C114.46 36.7167 113.99 37.01 113.457 37.21L116.807 43H113.997L110.757 37.43H109.187V43H106.747ZM109.187 34.99H111.837C112.184 34.99 112.5 34.9033 112.787 34.73C113.074 34.5567 113.304 34.3233 113.477 34.03C113.65 33.7367 113.737 33.41 113.737 33.05C113.737 32.6833 113.65 32.3533 113.477 32.06C113.304 31.7667 113.074 31.5333 112.787 31.36C112.5 31.1867 112.184 31.1 111.837 31.1H109.187V34.99ZM129.027 29V31.44H124.747V43H122.307V31.44H118.027V29H129.027ZM131.024 43V29H139.804V31.44H133.464V34.28H138.494V36.72H133.464V40.56H139.804V43H131.024ZM142.059 43V29H146.699C147.666 29 148.569 29.1833 149.409 29.55C150.256 29.91 150.999 30.4133 151.639 31.06C152.286 31.7 152.789 32.4433 153.149 33.29C153.516 34.13 153.699 35.0333 153.699 36C153.699 36.9667 153.516 37.8733 153.149 38.72C152.789 39.56 152.286 40.3033 151.639 40.95C150.999 41.59 150.256 42.0933 149.409 42.46C148.569 42.82 147.666 43 146.699 43H142.059ZM144.499 40.56H146.699C147.319 40.56 147.903 40.4433 148.449 40.21C149.003 39.97 149.489 39.6433 149.909 39.23C150.329 38.81 150.659 38.3267 150.899 37.78C151.139 37.2267 151.259 36.6333 151.259 36C151.259 35.3667 151.139 34.7767 150.899 34.23C150.659 33.6833 150.329 33.2 149.909 32.78C149.489 32.36 149.006 32.0333 148.459 31.8C147.913 31.56 147.326 31.44 146.699 31.44H144.499V40.56Z" fill="white"/>
<path d="M203.833 36H220.167" stroke="white" stroke-width="2" stroke-linecap="round" stroke-linejoin="round"/>
<path d="M212 27.8335L220.167 36.0002L212 44.1668" stroke="white" stroke-width="2" stroke-linecap="round" stroke-linejoin="round"/>
</svg>
