<svg width="560" height="560" viewBox="0 0 560 560" fill="none" xmlns="http://www.w3.org/2000/svg">
<path d="M266 65C266 87.0914 248.539 105 227 105C205.461 105 188 87.0914 188 65C188 42.9086 205.461 25 227 25C248.539 25 266 42.9086 266 65Z" fill="#55ABA4"/>
<path d="M350 85.5C350 103.449 335.449 118 317.5 118C299.551 118 285 103.449 285 85.5C285 67.5507 299.551 53 317.5 53C335.449 53 350 67.5507 350 85.5Z" fill="#5FBFBB"/>
<path d="M389 41C389 48.732 382.732 55 375 55C367.268 55 361 48.732 361 41C361 33.268 367.268 27 375 27C382.732 27 389 33.268 389 41Z" fill="#73D4D0"/>
<path d="M344 26.5C344 31.7467 339.747 36 334.5 36C329.253 36 325 31.7467 325 26.5C325 21.2533 329.253 17 334.5 17C339.747 17 344 21.2533 344 26.5Z" fill="#73D4D0"/>
<path d="M344 429.5C344 434.747 339.747 439 334.5 439C329.253 439 325 434.747 325 429.5C325 424.253 329.253 420 334.5 420C339.747 420 344 424.253 344 429.5Z" fill="#73D4D0"/>
<path d="M236 534.5C236 539.747 231.747 544 226.5 544C221.253 544 217 539.747 217 534.5C217 529.253 221.253 525 226.5 525C231.747 525 236 529.253 236 534.5Z" fill="#54ABA6"/>
<path d="M140 332.5C140 337.747 135.747 342 130.5 342C125.253 342 121 337.747 121 332.5C121 327.253 125.253 323 130.5 323C135.747 323 140 327.253 140 332.5Z" fill="#57A59F"/>
<path d="M389 41C389 48.732 382.732 55 375 55C367.268 55 361 48.732 361 41C361 33.268 367.268 27 375 27C382.732 27 389 33.268 389 41Z" fill="#73D4D0"/>
<path d="M389 419C389 426.732 382.732 433 375 433C367.268 433 361 426.732 361 419C361 411.268 367.268 405 375 405C382.732 405 389 411.268 389 419Z" fill="#73D4D0"/>
<path d="M198 519C198 526.732 191.732 533 184 533C176.268 533 170 526.732 170 519C170 511.268 176.268 505 184 505C191.732 505 198 511.268 198 519Z" fill="#539F99"/>
<path d="M157 374C157 381.732 150.732 388 143 388C135.268 388 129 381.732 129 374C129 366.268 135.268 360 143 360C150.732 360 157 366.268 157 374Z" fill="#4C8981"/>
<path d="M198 142C198 149.732 191.732 156 184 156C176.268 156 170 149.732 170 142C170 134.268 176.268 128 184 128C191.732 128 198 134.268 198 142Z" fill="#4E8F88"/>
<path d="M533 374C533 381.732 526.732 388 519 388C511.268 388 505 381.732 505 374C505 366.268 511.268 360 519 360C526.732 360 533 366.268 533 374Z" fill="#7EE0E0"/>
<path d="M451 77.5C451 89.9264 440.926 100 428.5 100C416.074 100 406 89.9264 406 77.5C406 65.0736 416.074 55 428.5 55C440.926 55 451 65.0736 451 77.5Z" fill="#71DFDC"/>
<path d="M450 384.5C450 396.926 439.926 407 427.5 407C415.074 407 405 396.926 405 384.5C405 372.074 415.074 362 427.5 362C439.926 362 450 372.074 450 384.5Z" fill="#71DFDC"/>
<path d="M152 177.5C152 189.926 141.926 200 129.5 200C117.074 200 107 189.926 107 177.5C107 165.074 117.074 155 129.5 155C141.926 155 152 165.074 152 177.5Z" fill="#498F87"/>
<path d="M450 384.5C450 396.926 439.926 407 427.5 407C415.074 407 405 396.926 405 384.5C405 372.074 415.074 362 427.5 362C439.926 362 450 372.074 450 384.5Z" fill="#71DFDC"/>
<path d="M507 426.5C507 438.926 496.926 449 484.5 449C472.074 449 462 438.926 462 426.5C462 414.074 472.074 404 484.5 404C496.926 404 507 414.074 507 426.5Z" fill="#75ECED"/>
<path d="M200 426.5C200 438.926 189.926 449 177.5 449C165.074 449 155 438.926 155 426.5C155 414.074 165.074 404 177.5 404C189.926 404 200 414.074 200 426.5Z" fill="#4F9C93"/>
<path d="M153 481.5C153 493.926 142.926 504 130.5 504C118.074 504 108 493.926 108 481.5C108 469.074 118.074 459 130.5 459C142.926 459 153 469.074 153 481.5Z" fill="#4B928A"/>
<path d="M507 141.5C507 159.449 492.449 174 474.5 174C456.551 174 442 159.449 442 141.5C442 123.551 456.551 109 474.5 109C492.449 109 507 123.551 507 141.5Z" fill="#73EFF0"/>
<path d="M508 317.5C508 335.449 493.449 350 475.5 350C457.551 350 443 335.449 443 317.5C443 299.551 457.551 285 475.5 285C493.449 285 508 299.551 508 317.5Z" fill="#73EFF0"/>
<path d="M115 239.5C115 257.449 100.449 272 82.5 272C64.5507 272 50 257.449 50 239.5C50 221.551 64.5507 207 82.5 207C100.449 207 115 221.551 115 239.5Z" fill="#41847B"/>
<path d="M453 474.5C453 492.449 438.449 507 420.5 507C402.551 507 388 492.449 388 474.5C388 456.551 402.551 442 420.5 442C438.449 442 453 456.551 453 474.5Z" fill="#6BDBD9"/>
<path d="M274 474.5C274 492.449 259.449 507 241.5 507C223.551 507 209 492.449 209 474.5C209 456.551 223.551 442 241.5 442C259.449 442 274 456.551 274 474.5Z" fill="#54ABA6"/>
<path d="M100 328.5C100 349.211 83.2107 366 62.5 366C41.7893 366 25 349.211 25 328.5C25 307.789 41.7893 291 62.5 291C83.2107 291 100 307.789 100 328.5Z" fill="#408278"/>
<path d="M116 418.5C116 436.449 101.449 451 83.5 451C65.5507 451 51 436.449 51 418.5C51 400.551 65.5507 386 83.5 386C101.449 386 116 400.551 116 418.5Z" fill="#43877D"/>
<path d="M535 231C535 252.539 517.539 270 496 270C474.461 270 457 252.539 457 231C457 209.461 474.461 192 496 192C517.539 192 535 209.461 535 231Z" fill="#73EFF0"/>
<path d="M369 492C369 513.539 351.539 531 330 531C308.461 531 291 513.539 291 492C291 470.461 308.461 453 330 453C351.539 453 369 470.461 369 492Z" fill="#61C3C0"/>
<path d="M404 132.5C404 145.479 393.479 156 380.5 156C367.521 156 357 145.479 357 132.5C357 119.521 367.521 109 380.5 109C393.479 109 404 119.521 404 132.5Z" fill="#6DD8D4"/>
<path d="M430 185.5C430 193.508 423.508 200 415.5 200C407.492 200 401 193.508 401 185.5C401 177.492 407.492 171 415.5 171C423.508 171 430 177.492 430 185.5Z" fill="#76D5D5"/>
<path d="M438 227C438 232.523 433.523 237 428 237C422.477 237 418 232.523 418 227C418 221.477 422.477 217 428 217C433.523 217 438 221.477 438 227Z" fill="#83EAE6"/>
<path d="M235 129C235 134.523 230.523 139 225 139C219.477 139 215 134.523 215 129C215 123.477 219.477 119 225 119C230.523 119 235 123.477 235 129Z" fill="#66A4A1"/>
<path d="M543 334C543 339.523 538.523 344 533 344C527.477 344 523 339.523 523 334C523 328.477 527.477 324 533 324C538.523 324 543 328.477 543 334Z" fill="#7BC2C2"/>
<path d="M430 185.5C430 193.508 423.508 200 415.5 200C407.492 200 401 193.508 401 185.5C401 177.492 407.492 171 415.5 171C423.508 171 430 177.492 430 185.5Z" fill="#76D5D5"/>
<path d="M175 85.5C175 104.002 159.33 119 140 119C120.67 119 105 104.002 105 85.5C105 66.9985 120.67 52 140 52C159.33 52 175 66.9985 175 85.5Z" fill="#49948B"/>
<path d="M97 132C97 144.703 86.2548 155 73 155C59.7452 155 49 144.703 49 132C49 119.297 59.7452 109 73 109C86.2548 109 97 119.297 97 132Z" fill="#428278"/>
<path d="M53 185.5C53 192.956 46.9558 199 39.5 199C32.0442 199 26 192.956 26 185.5C26 178.044 32.0442 172 39.5 172C46.9558 172 53 178.044 53 185.5Z" fill="#428278"/>
<path d="M34 226C34 230.971 29.9706 235 25 235C20.0294 235 16 230.971 16 226C16 221.029 20.0294 217 25 217C29.9706 217 34 221.029 34 226Z" fill="#436C60"/>
</svg>
